<svg width="134" height="125" viewBox="0 0 134 125" fill="none" xmlns="http://www.w3.org/2000/svg">
<ellipse cx="67" cy="62.5" rx="67" ry="62.5" fill="#CCF1D6"/>
<path fill-rule="evenodd" clip-rule="evenodd" d="M94.9599 85H39.0401C38.466 85 38 84.5329 38 83.9573V60.0427C38 59.4671 38.466 59 39.0401 59H94.9599C95.534 59 96 59.4671 96 60.0427V83.9573C96 84.5329 95.534 85 94.9599 85" fill="#480900"/>
<path fill-rule="evenodd" clip-rule="evenodd" d="M38 67H96V62H38V67Z" fill="#262626"/>
<path fill-rule="evenodd" clip-rule="evenodd" d="M75 44H73.0077V42.5601C73.0077 41.7624 72.4001 41.116 71.649 41.116H62.352C61.6009 41.116 60.9913 41.7624 60.9913 42.5601V44H59V42.3559C59 40.5023 60.4135 39 62.1588 39H71.8412C73.5865 39 75 40.5023 75 42.3559V44Z" fill="#262626"/>
<path fill-rule="evenodd" clip-rule="evenodd" d="M96.9741 65.858C97.5404 65.858 98 65.41 98 64.858V45C98 44.448 97.5404 44 96.9741 44H37.0259C36.4596 44 36 44.448 36 45V64.858C36 65.41 36.4596 65.858 37.0259 65.858H96.9741Z" fill="#881D0C"/>
<path fill-rule="evenodd" clip-rule="evenodd" d="M65 44H69V66.3381C69 67.2558 68.1053 68 67.0006 68C65.8959 68 65 67.2558 65 66.3381V44Z" fill="#FF9100"/>
</svg>
