<svg width="142" height="137" viewBox="0 0 142 137" fill="none" xmlns="http://www.w3.org/2000/svg">
<ellipse cx="71" cy="68.5" rx="71" ry="68.5" fill="#CCF1D6"/>
<rect width="58" height="83" transform="translate(42 27)" fill="#CCF1D6"/>
<rect x="42" y="27" width="58" height="83" rx="2" fill="#262626"/>
<rect x="47.8" y="34.7812" width="46.4" height="18.1562" fill="#F1F1F1"/>
<rect x="76.8" y="45.1562" width="5.8" height="2.59375" fill="#262626"/>
<rect x="85.5" y="45.1562" width="5.8" height="2.59375" fill="#262626"/>
<path d="M53.6 71.0938C56.8033 71.0938 59.4 68.7712 59.4 65.9062C59.4 63.0413 56.8033 60.7188 53.6 60.7188C50.3967 60.7188 47.8 63.0413 47.8 65.9062C47.8 68.7712 50.3967 71.0938 53.6 71.0938Z" fill="#F1F1F1"/>
<path d="M53.6 86.6562C56.8033 86.6562 59.4 84.3337 59.4 81.4688C59.4 78.6038 56.8033 76.2812 53.6 76.2812C50.3967 76.2812 47.8 78.6038 47.8 81.4688C47.8 84.3337 50.3967 86.6562 53.6 86.6562Z" fill="#F1F1F1"/>
<path d="M53.6 102.219C56.8033 102.219 59.4 99.8962 59.4 97.0312C59.4 94.1663 56.8033 91.8438 53.6 91.8438C50.3967 91.8438 47.8 94.1663 47.8 97.0312C47.8 99.8962 50.3967 102.219 53.6 102.219Z" fill="#F1F1F1"/>
<path d="M71 71.0938C74.2033 71.0938 76.8 68.7712 76.8 65.9062C76.8 63.0413 74.2033 60.7188 71 60.7188C67.7967 60.7188 65.2 63.0413 65.2 65.9062C65.2 68.7712 67.7967 71.0938 71 71.0938Z" fill="#F1F1F1"/>
<path d="M71 86.6562C74.2033 86.6562 76.8 84.3337 76.8 81.4688C76.8 78.6038 74.2033 76.2812 71 76.2812C67.7967 76.2812 65.2 78.6038 65.2 81.4688C65.2 84.3337 67.7967 86.6562 71 86.6562Z" fill="#F1F1F1"/>
<path d="M88.4 71.0938C91.6033 71.0938 94.2 68.7712 94.2 65.9062C94.2 63.0413 91.6033 60.7188 88.4 60.7188C85.1967 60.7188 82.6 63.0413 82.6 65.9062C82.6 68.7712 85.1967 71.0938 88.4 71.0938Z" fill="#FF9100"/>
<path d="M88.4 86.6562C91.6033 86.6562 94.2 84.3337 94.2 81.4688C94.2 78.6038 91.6033 76.2812 88.4 76.2812C85.1967 76.2812 82.6 78.6038 82.6 81.4688C82.6 84.3337 85.1967 86.6562 88.4 86.6562Z" fill="#F1F1F1"/>
<rect x="65.2" y="91.8438" width="29" height="10.375" rx="2" fill="#F1F1F1"/>
</svg>
