<svg width="134" height="125" viewBox="0 0 134 125" fill="none" xmlns="http://www.w3.org/2000/svg">
<ellipse cx="67" cy="62.5" rx="67" ry="62.5" fill="#CCF1D6"/>
<path fill-rule="evenodd" clip-rule="evenodd" d="M67 91C83.5685 91 97 77.5685 97 61C97 44.4315 83.5685 31 67 31C50.4315 31 37 44.4315 37 61C37 77.5685 50.4315 91 67 91Z" fill="#D05C4A"/>
<path fill-rule="evenodd" clip-rule="evenodd" d="M73.9425 48.5C71.565 48.5 68.765 49.73 67 52.96C65.235 49.73 62.435 48.5 60.0575 48.5C56.0975 48.5 52 51.8075 52 57.3425C52 65.295 65.6825 75.335 66.265 75.76C66.4825 75.9175 66.7425 75.9975 67 75.9975C67.2575 75.9975 67.5175 75.9175 67.735 75.7575C68.3175 75.335 82 65.2925 82 57.3425C82 51.8075 77.9025 48.5 73.9425 48.5Z" fill="#F9D2CC"/>
</svg>
