<svg width="96" height="96" viewBox="0 0 96 96" fill="none" xmlns="http://www.w3.org/2000/svg">
<g clip-path="url(#clip0_1_4889)">
<rect x="23" y="22" width="52" height="26" fill="#CCE2F0"/>
<rect x="23" y="48" width="52" height="26" fill="#CCE2F0"/>
<path d="M29.3333 1.5C30.5299 1.5 31.5 2.47005 31.5 3.66667V40.3333C31.5 41.53 30.53 42.5 29.3333 42.5H3.66667C2.47005 42.5 1.5 41.5299 1.5 40.3333V3.66667C1.5 2.47005 2.47005 1.5 3.66667 1.5H29.3333Z" stroke="#262626" stroke-width="3"/>
<path fill-rule="evenodd" clip-rule="evenodd" d="M8.83325 31.3333C9.66168 31.3333 10.3333 32.0048 10.3333 32.8333C10.3333 33.6617 9.66168 34.3333 8.83325 34.3333C8.00482 34.3333 7.33325 33.6617 7.33325 32.8333C7.33325 32.0048 8.00482 31.3333 8.83325 31.3333Z" fill="#262626" stroke="#262626"/>
<path fill-rule="evenodd" clip-rule="evenodd" d="M16.1666 31.3333C16.9951 31.3333 17.6666 32.0048 17.6666 32.8333C17.6666 33.6617 16.9951 34.3333 16.1666 34.3333C15.3382 34.3333 14.6666 33.6617 14.6666 32.8333C14.6666 32.0048 15.3382 31.3333 16.1666 31.3333Z" fill="#262626" stroke="#262626"/>
<path fill-rule="evenodd" clip-rule="evenodd" d="M23.5 31.3333C24.3284 31.3333 25 32.0048 25 32.8333C25 33.6617 24.3284 34.3333 23.5 34.3333C22.6716 34.3333 22 33.6617 22 32.8333C22 32.0048 22.6716 31.3333 23.5 31.3333Z" fill="#262626" stroke="#262626"/>
<path fill-rule="evenodd" clip-rule="evenodd" d="M8.83325 24C9.66168 24 10.3333 24.6716 10.3333 25.5C10.3333 26.3284 9.66168 27 8.83325 27C8.00482 27 7.33325 26.3284 7.33325 25.5C7.33325 24.6716 8.00482 24 8.83325 24Z" fill="#262626" stroke="#262626"/>
<path fill-rule="evenodd" clip-rule="evenodd" d="M16.1666 23.8333C16.9951 23.8333 17.6666 24.5049 17.6666 25.3333C17.6666 26.1617 16.9951 26.8333 16.1666 26.8333C15.3382 26.8333 14.6666 26.1617 14.6666 25.3333C14.6666 24.5049 15.3382 23.8333 16.1666 23.8333Z" fill="#262626" stroke="#262626"/>
<path fill-rule="evenodd" clip-rule="evenodd" d="M23.5001 23.8333C24.3285 23.8333 25.0001 24.5049 25.0001 25.3333C25.0001 26.1617 24.3285 26.8333 23.5001 26.8333C22.6716 26.8333 22.0001 26.1617 22.0001 25.3333C22.0001 24.5049 22.6716 23.8333 23.5001 23.8333Z" fill="#262626" stroke="#262626"/>
<path fill-rule="evenodd" clip-rule="evenodd" d="M8.83331 16.5C9.66174 16.5 10.3333 17.1716 10.3333 18C10.3333 18.8284 9.66174 19.5 8.83331 19.5C8.00489 19.5 7.33331 18.8284 7.33331 18C7.33331 17.1716 8.00489 16.5 8.83331 16.5Z" fill="#262626" stroke="#262626"/>
<path fill-rule="evenodd" clip-rule="evenodd" d="M16.1666 16.5C16.9951 16.5 17.6666 17.1716 17.6666 18C17.6666 18.8284 16.9951 19.5 16.1666 19.5C15.3382 19.5 14.6666 18.8284 14.6666 18C14.6666 17.1716 15.3382 16.5 16.1666 16.5Z" fill="#262626" stroke="#262626"/>
<path fill-rule="evenodd" clip-rule="evenodd" d="M23.5001 16.5C24.3285 16.5 25.0001 17.1716 25.0001 18C25.0001 18.8284 24.3285 19.5 23.5001 19.5C22.6716 19.5 22.0001 18.8284 22.0001 18C22.0001 17.1716 22.6716 16.5 23.5001 16.5Z" fill="#262626" stroke="#262626"/>
<path d="M25.6666 10H7.33325" stroke="#262626" stroke-width="3"/>
<line x1="74.75" y1="54.939" x2="96" y2="54.939" stroke="#262626" stroke-width="3"/>
<line x1="46" y1="54.939" x2="67.25" y2="54.939" stroke="#262626" stroke-width="3"/>
<line x1="56.25" y1="44" x2="56.25" y2="65.1464" stroke="#262626" stroke-width="3"/>
<line y1="-1.5" x2="21.1983" y2="-1.5" transform="matrix(0.708833 0.705377 -0.708833 0.705377 47.7861 79.5137)" stroke="#262626" stroke-width="3"/>
<line y1="-1.5" x2="21.1983" y2="-1.5" transform="matrix(-0.708833 0.705377 -0.708833 -0.705377 62.812 76.8752)" stroke="#262626" stroke-width="3"/>
<line x1="74.75" y1="86.0366" x2="96" y2="86.0366" stroke="#262626" stroke-width="3"/>
<path fill-rule="evenodd" clip-rule="evenodd" d="M85.375 76.3416C86.4105 76.3416 87.25 77.1769 87.25 78.2074C87.25 79.2379 86.4105 80.0733 85.375 80.0733C84.3395 80.0733 83.5 79.2379 83.5 78.2074C83.5 77.1769 84.3395 76.3416 85.375 76.3416Z" fill="#262626" stroke="#262626"/>
<path fill-rule="evenodd" clip-rule="evenodd" d="M85.375 91.2683C86.4105 91.2683 87.25 92.1037 87.25 93.1342C87.25 94.1647 86.4105 95 85.375 95C84.3395 95 83.5 94.1647 83.5 93.1342C83.5 92.1037 84.3395 91.2683 85.375 91.2683Z" fill="#262626" stroke="#262626"/>
</g>
<defs>
<clipPath id="clip0_1_4889">
<rect width="96" height="96" fill="white"/>
</clipPath>
</defs>
</svg>
