<svg width="64" height="64" viewBox="0 0 64 64" fill="none" xmlns="http://www.w3.org/2000/svg">
    <g clip-path="url(#clip0_19357_38278)">
        <path fill-rule="evenodd" clip-rule="evenodd" d="M32 40.7788C36.05 40.7788 39.3333 44.037 39.3333 48.0561C39.3333 52.0752 36.05 55.3334 32 55.3334C27.9499 55.3334 24.6666 52.0752 24.6666 48.0561C24.6666 44.037 27.9499 40.7788 32 40.7788Z" fill="#CCE2F0"/>
        <path fill-rule="evenodd" clip-rule="evenodd" d="M31.9979 20.575C29.3398 20.575 28 22.4568 28 23.783H16C16 15.005 23.6299 8.66675 31.9979 8.66675C40.3655 8.66675 48 15.0027 48 23.783C48 27.9706 46.1998 31.8324 43.1419 34.6357L43.1178 34.6577L43.0936 34.6794L43.0454 34.7222C43.1419 34.6357 43.0925 34.6804 43.0925 34.6804L43.089 34.6836L43.0839 34.6881L43.0727 34.6981L43.0454 34.7222C43.0252 34.7401 43.0008 34.7615 42.9723 34.7862C42.9153 34.8356 42.8419 34.8984 42.7529 34.9728C42.5752 35.1214 42.3337 35.3176 42.0354 35.5469C41.4427 36.0022 40.6041 36.6042 39.5768 37.2258L39.5214 37.2593C39.1239 37.4998 38.7369 37.734 38.3448 37.9864C38.2183 38.0678 38.0987 38.1464 37.9863 38.222V38.851H37.1393C37.1053 38.8809 37.0898 38.8956 37.0898 38.8956C37.0898 38.8956 37.1038 38.8806 37.1289 38.851H25.9863V37.0641L26.0119 36.0702C26.0309 33.7654 27.1935 32.1179 27.7742 31.3934C28.4754 30.5187 29.2848 29.824 29.9066 29.3373C31.088 28.4125 32.4436 27.5937 33.2019 27.1357C33.2465 27.1087 33.2891 27.083 33.3295 27.0586C33.9037 26.7111 34.3738 26.3731 34.6894 26.1306C34.8452 26.0109 34.9578 25.9188 35.0206 25.8663C35.0299 25.8585 35.038 25.8517 35.045 25.8458C35.7308 25.197 36 24.4739 36 23.783C36 22.4591 34.6607 20.575 31.9979 20.575Z" fill="#CCE2F0"/>
        <path d="M4.75009 7.04666L6.45217 9.18555L10.4897 5.27062" stroke="#262626" stroke-width="2"/>
        <path d="M11.4 8.55542H19" stroke="#262626" stroke-width="2"/>
        <path d="M11.4 14.6665L19 14.6665" stroke="#262626" stroke-width="2"/>
        <path d="M11.4 20.7778L19 20.7778" stroke="#262626" stroke-width="2"/>
        <mask id="path-7-inside-1_19357_38278" fill="white">
            <rect width="25.3333" height="29.3333" rx="1.33333"/>
        </mask>
        <rect width="25.3333" height="29.3333" rx="1.33333" stroke="#262626" stroke-width="4" mask="url(#path-7-inside-1_19357_38278)"/>
        <ellipse cx="7.66658" cy="14.7314" rx="1.33333" ry="1.28655" fill="#262626"/>
        <ellipse cx="7.66658" cy="20.5849" rx="1.33333" ry="1.28655" fill="#262626"/>
        <circle cx="39" cy="40.9998" r="13.3333" stroke="#262626" stroke-width="2"/>
        <line x1="48.7071" y1="49.9594" x2="62.0404" y2="63.2927" stroke="#262626" stroke-width="2"/>
    </g>
    <defs>
        <clipPath id="clip0_19357_38278">
            <rect width="64" height="64" fill="white"/>
        </clipPath>
    </defs>
</svg>
