<svg width="134" height="125" viewBox="0 0 134 125" fill="none" xmlns="http://www.w3.org/2000/svg">
<ellipse cx="67" cy="62.5" rx="67" ry="62.5" fill="#CCF1D6"/>
<path fill-rule="evenodd" clip-rule="evenodd" d="M46.375 60.4167H35.375C34.616 60.4167 34 60.9899 34 61.6962V80.8873C34 81.5936 34.616 82.1668 35.375 82.1668H46.375C47.1313 82.1668 47.75 81.5936 47.75 80.8873V61.6962C47.75 60.9899 47.1313 60.4167 46.375 60.4167Z" fill="#3380A5"/>
<path d="M79.375 45.9167C84.6825 45.9167 89 42.1225 89 37.4583C89 32.7917 84.6825 29 79.375 29C74.0675 29 69.75 32.7917 69.75 37.4583C69.75 42.1225 74.0675 45.9167 79.375 45.9167Z" fill="#FFAA33"/>
<path d="M78 35.0416C78 34.3746 78.616 33.8333 79.375 33.8333C80.1313 33.8333 80.75 34.3746 80.75 35.0416V39.8749C80.75 40.5419 80.1313 41.0833 79.375 41.0833C78.616 41.0833 78 40.5419 78 39.8749V35.0416Z" fill="#A86400"/>
<path d="M62.875 60.4167C68.1825 60.4167 72.5 56.6225 72.5 51.9583C72.5 47.2917 68.1825 43.5 62.875 43.5C57.5675 43.5 53.25 47.2917 53.25 51.9583C53.25 56.6225 57.5675 60.4167 62.875 60.4167Z" fill="#FFAA33"/>
<path d="M61.5 49.5416C61.5 48.8746 62.116 48.3333 62.875 48.3333C63.6313 48.3333 64.25 48.8746 64.25 49.5416V54.3749C64.25 55.0419 63.6313 55.5833 62.875 55.5833C62.116 55.5833 61.5 55.0419 61.5 54.3749V49.5416Z" fill="#A86400"/>
<path fill-rule="evenodd" clip-rule="evenodd" d="M63.262 73.1097C63.0551 73.398 63.1533 73.7792 63.4814 73.961C63.5121 73.978 63.5442 73.9929 63.5775 74.0055L72.5 77.3942L89 72.1824C92.7421 71.2465 96.2699 69.9548 99.5856 72.8517C99.9047 73.1332 100.052 73.5333 99.9838 73.9259C99.9103 74.3211 99.6279 74.6569 99.2212 74.8347C91.4179 78.2452 86.1734 80.8655 82.3438 82.7794C76.5569 85.6713 73.7864 86.9999 70.547 86.9999C67.8301 86.9999 64.7828 86.0639 59.3377 84.3328C56.57 83.4511 53.1245 82.3571 48.7159 81.0704C48.1397 80.9025 47.75 80.4308 47.75 79.8999V64.0586C47.75 63.3822 48.451 62.8333 49.3148 62.8333H54.0093C58.2646 62.8333 61.5319 64.0363 63.7859 65.2499H76.625C78.9032 65.2499 80.75 66.8729 80.75 68.8749C80.75 70.877 78.9032 72.4999 76.625 72.4999H64.5199C64.0093 72.4999 63.5344 72.7301 63.262 73.1097Z" fill="#FFD799"/>
</svg>
