<svg width="134" height="125" viewBox="0 0 134 125" fill="none" xmlns="http://www.w3.org/2000/svg">
<ellipse cx="67" cy="62.5" rx="67" ry="62.5" fill="#CCF1D6"/>
<path d="M67 87.7143C74.4558 87.7143 80.5 80.6788 80.5 72C80.5 63.3212 74.4558 56.2857 67 56.2857C59.5442 56.2857 53.5 63.3212 53.5 72C53.5 80.6788 59.5442 87.7143 67 87.7143Z" fill="#D47B00"/>
<path d="M67 82C71.9706 82 76 78.1624 76 73.4286C76 68.6947 71.9706 64.8571 67 64.8571C62.0294 64.8571 58 68.6947 58 73.4286C58 78.1624 62.0294 82 67 82Z" fill="#FFD799"/>
<path d="M78.9983 92C83.9679 92 87.9966 88.1624 87.9966 83.4286C87.9966 78.6947 83.9679 74.8571 78.9983 74.8571C74.0287 74.8571 70 78.6947 70 83.4286C70 88.1624 74.0287 92 78.9983 92Z" fill="#D47B00"/>
<path d="M79 89.1429C81.4853 89.1429 83.5 87.2241 83.5 84.8572C83.5 82.4902 81.4853 80.5714 79 80.5714C76.5147 80.5714 74.5 82.4902 74.5 84.8572C74.5 87.2241 76.5147 89.1429 79 89.1429Z" fill="#F8CEA0"/>
<path d="M79 79.1429C79.8284 79.1429 80.5 78.5033 80.5 77.7143C80.5 76.9253 79.8284 76.2857 79 76.2857C78.1716 76.2857 77.5 76.9253 77.5 77.7143C77.5 78.5033 78.1716 79.1429 79 79.1429Z" fill="#F8CEA0"/>
<path d="M83.5 80.5714C84.3284 80.5714 85 79.9318 85 79.1429C85 78.3539 84.3284 77.7143 83.5 77.7143C82.6716 77.7143 82 78.3539 82 79.1429C82 79.9318 82.6716 80.5714 83.5 80.5714Z" fill="#F8CEA0"/>
<path d="M74.5 80.5714C75.3284 80.5714 76 79.9318 76 79.1429C76 78.3539 75.3284 77.7143 74.5 77.7143C73.6716 77.7143 73 78.3539 73 79.1429C73 79.9318 73.6716 80.5714 74.5 80.5714Z" fill="#F8CEA0"/>
<path d="M54.9983 92C59.9679 92 63.9966 88.1624 63.9966 83.4286C63.9966 78.6947 59.9679 74.8571 54.9983 74.8571C50.0287 74.8571 46 78.6947 46 83.4286C46 88.1624 50.0287 92 54.9983 92Z" fill="#D47B00"/>
<path d="M55 89.1429C57.4853 89.1429 59.5 87.2241 59.5 84.8572C59.5 82.4902 57.4853 80.5714 55 80.5714C52.5147 80.5714 50.5 82.4902 50.5 84.8572C50.5 87.2241 52.5147 89.1429 55 89.1429Z" fill="#F8CEA0"/>
<path d="M55 79.1429C55.8284 79.1429 56.5 78.5033 56.5 77.7143C56.5 76.9253 55.8284 76.2857 55 76.2857C54.1716 76.2857 53.5 76.9253 53.5 77.7143C53.5 78.5033 54.1716 79.1429 55 79.1429Z" fill="#F8CEA0"/>
<path d="M59.5 80.5714C60.3284 80.5714 61 79.9318 61 79.1429C61 78.3539 60.3284 77.7143 59.5 77.7143C58.6716 77.7143 58 78.3539 58 79.1429C58 79.9318 58.6716 80.5714 59.5 80.5714Z" fill="#F8CEA0"/>
<path d="M50.5 80.5714C51.3284 80.5714 52 79.9318 52 79.1429C52 78.3539 51.3284 77.7143 50.5 77.7143C49.6716 77.7143 49 78.3539 49 79.1429C49 79.9318 49.6716 80.5714 50.5 80.5714Z" fill="#F8CEA0"/>
<path d="M67 64.8571C76.9411 64.8571 85 57.8216 85 49.1429C85 40.4641 76.9411 33.4286 67 33.4286C57.0589 33.4286 49 40.4641 49 49.1429C49 57.8216 57.0589 64.8571 67 64.8571Z" fill="#D47B00"/>
<path d="M60.9828 47.8765C61.7984 48.0145 62.6904 46.8663 62.9751 45.3118C63.2598 43.7573 62.8294 42.3852 62.0137 42.2471C61.1981 42.1091 60.3061 43.2573 60.0214 44.8118C59.7367 46.3663 60.1672 47.7384 60.9828 47.8765Z" fill="#262626"/>
<path d="M72.5138 47.8765C71.6981 48.0145 70.8062 46.8663 70.5215 45.3118C70.2368 43.7573 70.6672 42.3852 71.4829 42.2471C72.2985 42.1091 73.1905 43.2573 73.4752 44.8118C73.7599 46.3663 73.3294 47.7384 72.5138 47.8765Z" fill="#262626"/>
<path d="M67 62C71.9706 62 76 58.1624 76 53.4286C76 48.6947 71.9706 44.8571 67 44.8571C62.0294 44.8571 58 48.6947 58 53.4286C58 58.1624 62.0294 62 67 62Z" fill="#FFD799"/>
<path d="M80.5 43.4286C77.1863 43.4286 74.5 40.8702 74.5 37.7143C74.5 34.5584 77.1863 32 80.5 32C83.8137 32 86.5 34.5584 86.5 37.7143C86.5 40.8702 83.8137 43.4286 80.5 43.4286Z" fill="#D47B00"/>
<path d="M80.5 40.5714C78.8431 40.5714 77.5 39.2922 77.5 37.7143C77.5 36.1363 78.8431 34.8571 80.5 34.8571C82.1569 34.8571 83.5 36.1363 83.5 37.7143C83.5 39.2922 82.1569 40.5714 80.5 40.5714Z" fill="#FFD799"/>
<path d="M53.5 43.4286C56.8137 43.4286 59.5 40.8702 59.5 37.7143C59.5 34.5584 56.8137 32 53.5 32C50.1863 32 47.5 34.5584 47.5 37.7143C47.5 40.8702 50.1863 43.4286 53.5 43.4286Z" fill="#D47B00"/>
<path d="M53.5 40.5714C55.1569 40.5714 56.5 39.2922 56.5 37.7143C56.5 36.1363 55.1569 34.8571 53.5 34.8571C51.8431 34.8571 50.5 36.1363 50.5 37.7143C50.5 39.2922 51.8431 40.5714 53.5 40.5714Z" fill="#FFD799"/>
<path d="M67 54.8571C68.6569 54.8571 70 53.578 70 52C70 50.422 68.6569 49.1429 67 49.1429C65.3431 49.1429 64 50.422 64 52C64 53.578 65.3431 54.8571 67 54.8571Z" fill="#8B5F26"/>
<path d="M58 60.5714C58 60.5714 52.2857 62.2857 49.4286 65.7143C46.5714 69.1429 46 72.5714 46 74.2857C46 76 46.8571 77.7143 49.4286 77.7143C52 77.7143 52.8571 74.8571 52.8571 74.8571C52.8571 74.8571 54.5714 68 56.2857 65.7143C58 63.4286 58 60.5714 58 60.5714Z" fill="#D47B00"/>
<path d="M76 60.5714C76 60.5714 81.7143 62.2857 84.5714 65.7143C87.4286 69.1429 88 72.5714 88 74.2857C88 76 87.1429 77.7143 84.5714 77.7143C82 77.7143 81.1429 74.8571 81.1429 74.8571C81.1429 74.8571 79.4286 68 77.7143 65.7143C76 63.4286 76 60.5714 76 60.5714Z" fill="#D47B00"/>
</svg>
