<svg width="30" height="32" viewBox="0 0 30 32" fill="none" xmlns="http://www.w3.org/2000/svg">
<rect y="8.44326" width="30" height="23" rx="2.09952" fill="#4F4F4F"/>
<rect x="1.6539" y="11.4739" width="23.3333" height="13.3268" transform="rotate(-16 1.6539 11.4739)" fill="#EFA89D"/>
<rect x="19.4106" y="6.38226" width="2.91667" height="13.3268" transform="rotate(-16 19.4106 6.38226)" fill="#F9D2CC"/>
<rect x="2.31073" y="13.3711" width="24.1667" height="12.8142" transform="rotate(-8 2.31073 13.3711)" fill="#B5F1FF"/>
<rect x="21.2565" y="10.7084" width="3.02083" height="12.8142" transform="rotate(-8 21.2565 10.7084)" fill="#D8F9FF"/>
<rect x="2.5" y="14.3427" width="24.8276" height="8.775" fill="#99DEAD"/>
<rect x="22.1552" y="14.3427" width="3.10345" height="8.775" fill="#CCF1D6"/>
<path fill-rule="evenodd" clip-rule="evenodd" d="M8.9873 17.3427C11.0296 17.3427 11.4514 21.5532 15 21.5532C18.5486 21.5532 18.5486 17.3427 21 17.3427H29C29.5523 17.3427 30 17.814 30 18.3953V26.2901C30 26.8714 29.5523 27.3427 29 27.3427H1C0.447715 27.3427 0 26.8714 0 26.2901V18.3953C0 17.814 0.447715 17.3427 1 17.3427C1 17.3427 7.30848 17.3427 8.9873 17.3427Z" fill="#4F4F4F"/>
</svg>
