<svg width="134" height="125" viewBox="0 0 134 125" fill="none" xmlns="http://www.w3.org/2000/svg">
<path d="M134 62.5C134 97.0178 104.003 125 67 125C29.9969 125 0 97.0178 0 62.5C0 27.9822 29.9969 0 67 0C104.003 0 134 27.9822 134 62.5Z" fill="#CCF1D6"/>
<path d="M37 38.986C37 37.8265 37.94 36.8865 39.0995 36.8865H94.9005C96.06 36.8865 97 37.8265 97 38.986V80.787C97 81.9465 96.06 82.8865 94.9005 82.8865H39.0995C37.94 82.8865 37 81.9465 37 80.787V38.986Z" fill="#4F4F4F"/>
<path d="M40.3078 42.9478L85.1667 30.0847L92.5134 55.7058L47.6545 68.5689L40.3078 42.9478Z" fill="#EFA89D"/>
<path d="M75.8211 32.7645L81.4285 31.1566L88.7752 56.7777L83.1678 58.3856L75.8211 32.7645Z" fill="#F9D2CC"/>
<path d="M41.6214 46.7421L89.4844 40.0154L93.0512 65.3945L45.1882 72.1212L41.6214 46.7421Z" fill="#B5F1FF"/>
<path d="M79.513 41.4168L85.4958 40.576L89.0626 65.9551L83.0797 66.7959L79.513 41.4168Z" fill="#D8F9FF"/>
<path d="M42 48.6854H91.6552V66.2354H42V48.6854Z" fill="#99DEAD"/>
<path d="M81.3103 48.6854H87.5172V66.2354H81.3103V48.6854Z" fill="#CCF1D6"/>
<path fill-rule="evenodd" clip-rule="evenodd" d="M54.9746 54.6854C59.0591 54.6854 59.9028 63.1065 67 63.1065C74.0972 63.1065 74.0972 54.6854 79 54.6854H95C96.1046 54.6854 97 55.628 97 56.7907V72.5802C97 73.7429 96.1046 74.6854 95 74.6854H39C37.8954 74.6854 37 73.7429 37 72.5802V56.7907C37 55.628 37.8954 54.6854 39 54.6854C39 54.6854 51.617 54.6854 54.9746 54.6854Z" fill="#4F4F4F"/>
</svg>
